                                                                        S      1
1H,,1H;,, 9H..\master,                                                  G      1
5HANSYS,22H  19.2      UP20180808,,,,,,,1.0,6,,,,13H000611.234214,      G      2
1.0000E-04,,,,9,,;                                                      G      3
     128       1       0       0       0       0       0       000010001D      1
     128       0       0      12       1       0       0 SURFACE       0D      2
     126      13       0       0       0       0       0       000010001D      3
     126       0       0       7       1       0       0B-SPLINE       0D      4
     126      20       0       0       0       0       0       000010001D      5
     126       0       0       7       1       0       0B-SPLINE       0D      6
     126      27       0       0       0       0       0       000010001D      7
     126       0       0       7       1       0       0B-SPLINE       0D      8
     126      34       0       0       0       0       0       000010001D      9
     126       0       0       7       1       0       0B-SPLINE       0D     10
     128      41       0       0       0       0       0       000010001D     11
     128       0       0      12       1       0       0 SURFACE       0D     12
     126      53       0       0       0       0       0       000010001D     13
     126       0       0       7       1       0       0B-SPLINE       0D     14
     126      60       0       0       0       0       0       000010001D     15
     126       0       0       7       1       0       0B-SPLINE       0D     16
     126      67       0       0       0       0       0       000010001D     17
     126       0       0       7       1       0       0B-SPLINE       0D     18
     126      74       0       0       0       0       0       000010001D     19
     126       0       0       7       1       0       0B-SPLINE       0D     20
     128      81       0       0       0       0       0       000010001D     21
     128       0       0      12       1       0       0 SURFACE       0D     22
     126      93       0       0       0       0       0       000010001D     23
     126       0       0       7       1       0       0B-SPLINE       0D     24
     126     100       0       0       0       0       0       000010001D     25
     126       0       0       7       1       0       0B-SPLINE       0D     26
     128     107       0       0       0       0       0       000010001D     27
     128       0       0      12       1       0       0 SURFACE       0D     28
     126     119       0       0       0       0       0       000010001D     29
     126       0       0       7       1       0       0B-SPLINE       0D     30
     126     126       0       0       0       0       0       000010001D     31
     126       0       0       7       1       0       0B-SPLINE       0D     32
     128     133       0       0       0       0       0       000010001D     33
     128       0       0      12       1       0       0 SURFACE       0D     34
     128     145       0       0       0       0       0       000010001D     35
     128       0       0      12       1       0       0 SURFACE       0D     36
     502     157       0       0       0       0       0       000010001D     37
     502       0       0       9       1       0       0  VERTEX       0D     38
     504     166       0       0       0       0       0       000010001D     39
     504       0       0      12       1       0       0    EDGE       0D     40
     508     178       0       0       0       0       0       000010001D     41
     508       0       0       4       1       0       0    LOOP       0D     42
     510     182       0       0       0       0       0       000010001D     43
     510       0       0       1       1       0       0    FACE       0D     44
     508     183       0       0       0       0       0       000010001D     45
     508       0       0       4       1       0       0    LOOP       0D     46
     510     187       0       0       0       0       0       000010001D     47
     510       0       0       1       1       0       0    FACE       0D     48
     508     188       0       0       0       0       0       000010001D     49
     508       0       0       4       1       0       0    LOOP       0D     50
     510     192       0       0       0       0       0       000010001D     51
     510       0       0       1       1       0       0    FACE       0D     52
     508     193       0       0       0       0       0       000010001D     53
     508       0       0       4       1       0       0    LOOP       0D     54
     510     197       0       0       0       0       0       000010001D     55
     510       0       0       1       1       0       0    FACE       0D     56
     508     198       0       0       0       0       0       000010001D     57
     508       0       0       4       1       0       0    LOOP       0D     58
     510     202       0       0       0       0       0       000010001D     59
     510       0       0       1       1       0       0    FACE       0D     60
     508     203       0       0       0       0       0       000010001D     61
     508       0       0       4       1       0       0    LOOP       0D     62
     510     207       0       0       0       0       0       000010001D     63
     510       0       0       1       1       0       0    FACE       0D     64
     514     208       0       0       0       0       0       000010001D     65
     514       0       0       2       1       0       0   SHELL       0D     66
     186     210       0       0       0       0       0       000000001D     67
     186       0       0       1       0       0       0   B-REP       0D     68
128,1,1,1,1,0,0,                                                       1P      1
1,0,0,                                                                 1P      2
0.00000000000,0.00000000000,1.00000000000,                             1P      3
1.00000000000,0.00000000000,0.00000000000,                             1P      4
1.00000000000,1.00000000000,1.00000000000,                             1P      5
1.00000000000,1.00000000000,1.00000000000,                             1P      6
0.00000000000,0.00000000000,0.00000000000,                             1P      7
0.00000000000,10.0000000000,0.00000000000,                             1P      8
10.0000000000,0.00000000000,0.00000000000,                             1P      9
10.0000000000,10.0000000000,0.00000000000,                             1P     10
0.00000000000,1.00000000000,0.00000000000,                             1P     11
1.00000000000,0,0,0;                                                   1P     12
126,1,1,0,0,1,0,                                                       3P     13
0.00000000000,0.00000000000,1.00000000000,                             3P     14
1.00000000000,1.00000000000,1.00000000000,                             3P     15
0.00000000000,10.0000000000,0.00000000000,                             3P     16
0.00000000000,0.00000000000,0.00000000000,                             3P     17
0.00000000000,1.00000000000,0.00000000000,                             3P     18
0.00000000000,0.00000000000,0,0,0;                                     3P     19
126,1,1,0,0,1,0,                                                       5P     20
0.00000000000,0.00000000000,1.00000000000,                             5P     21
1.00000000000,1.00000000000,1.00000000000,                             5P     22
10.0000000000,10.0000000000,0.00000000000,                             5P     23
0.00000000000,10.0000000000,0.00000000000,                             5P     24
0.00000000000,1.00000000000,0.00000000000,                             5P     25
0.00000000000,0.00000000000,0,0,0;                                     5P     26
126,1,1,0,0,1,0,                                                       7P     27
0.00000000000,0.00000000000,1.00000000000,                             7P     28
1.00000000000,1.00000000000,1.00000000000,                             7P     29
10.0000000000,0.00000000000,0.00000000000,                             7P     30
10.0000000000,10.0000000000,0.00000000000,                             7P     31
0.00000000000,1.00000000000,0.00000000000,                             7P     32
0.00000000000,0.00000000000,0,0,0;                                     7P     33
126,1,1,0,0,1,0,                                                       9P     34
0.00000000000,0.00000000000,1.00000000000,                             9P     35
1.00000000000,1.00000000000,1.00000000000,                             9P     36
0.00000000000,0.00000000000,0.00000000000,                             9P     37
10.0000000000,0.00000000000,0.00000000000,                             9P     38
0.00000000000,1.00000000000,0.00000000000,                             9P     39
0.00000000000,0.00000000000,0,0,0;                                     9P     40
128,1,1,1,1,0,0,                                                      11P     41
1,0,0,                                                                11P     42
0.00000000000,0.00000000000,1.00000000000,                            11P     43
1.00000000000,0.00000000000,0.00000000000,                            11P     44
1.00000000000,1.00000000000,1.00000000000,                            11P     45
1.00000000000,1.00000000000,1.00000000000,                            11P     46
0.00000000000,0.00000000000,10.0000000000,                            11P     47
10.0000000000,0.00000000000,10.0000000000,                            11P     48
0.00000000000,10.0000000000,10.0000000000,                            11P     49
10.0000000000,10.0000000000,10.0000000000,                            11P     50
0.00000000000,1.00000000000,0.00000000000,                            11P     51
1.00000000000,0,0,0;                                                  11P     52
126,1,1,0,0,1,0,                                                      13P     53
0.00000000000,0.00000000000,1.00000000000,                            13P     54
1.00000000000,1.00000000000,1.00000000000,                            13P     55
0.00000000000,0.00000000000,10.0000000000,                            13P     56
10.0000000000,0.00000000000,10.0000000000,                            13P     57
0.00000000000,1.00000000000,0.00000000000,                            13P     58
0.00000000000,0.00000000000,0,0,0;                                    13P     59
126,1,1,0,0,1,0,                                                      15P     60
0.00000000000,0.00000000000,1.00000000000,                            15P     61
1.00000000000,1.00000000000,1.00000000000,                            15P     62
10.0000000000,0.00000000000,10.0000000000,                            15P     63
10.0000000000,10.0000000000,10.0000000000,                            15P     64
0.00000000000,1.00000000000,0.00000000000,                            15P     65
0.00000000000,0.00000000000,0,0,0;                                    15P     66
126,1,1,0,0,1,0,                                                      17P     67
0.00000000000,0.00000000000,1.00000000000,                            17P     68
1.00000000000,1.00000000000,1.00000000000,                            17P     69
10.0000000000,10.0000000000,10.0000000000,                            17P     70
0.00000000000,10.0000000000,10.0000000000,                            17P     71
0.00000000000,1.00000000000,0.00000000000,                            17P     72
0.00000000000,0.00000000000,0,0,0;                                    17P     73
126,1,1,0,0,1,0,                                                      19P     74
0.00000000000,0.00000000000,1.00000000000,                            19P     75
1.00000000000,1.00000000000,1.00000000000,                            19P     76
0.00000000000,10.0000000000,10.0000000000,                            19P     77
0.00000000000,0.00000000000,10.0000000000,                            19P     78
0.00000000000,1.00000000000,0.00000000000,                            19P     79
0.00000000000,0.00000000000,0,0,0;                                    19P     80
128,1,1,1,1,0,0,                                                      21P     81
1,0,0,                                                                21P     82
0.00000000000,0.00000000000,1.00000000000,                            21P     83
1.00000000000,0.00000000000,0.00000000000,                            21P     84
1.00000000000,1.00000000000,1.00000000000,                            21P     85
1.00000000000,1.00000000000,1.00000000000,                            21P     86
0.00000000000,0.00000000000,10.0000000000,                            21P     87
0.00000000000,0.00000000000,0.00000000000,                            21P     88
10.0000000000,0.00000000000,10.0000000000,                            21P     89
10.0000000000,0.00000000000,0.00000000000,                            21P     90
0.00000000000,1.00000000000,0.00000000000,                            21P     91
1.00000000000,0,0,0;                                                  21P     92
126,1,1,0,0,1,0,                                                      23P     93
0.00000000000,0.00000000000,1.00000000000,                            23P     94
1.00000000000,1.00000000000,1.00000000000,                            23P     95
0.00000000000,0.00000000000,10.0000000000,                            23P     96
0.00000000000,0.00000000000,0.00000000000,                            23P     97
0.00000000000,1.00000000000,0.00000000000,                            23P     98
0.00000000000,0.00000000000,0,0,0;                                    23P     99
126,1,1,0,0,1,0,                                                      25P    100
0.00000000000,0.00000000000,1.00000000000,                            25P    101
1.00000000000,1.00000000000,1.00000000000,                            25P    102
10.0000000000,0.00000000000,0.00000000000,                            25P    103
10.0000000000,0.00000000000,10.0000000000,                            25P    104
0.00000000000,1.00000000000,0.00000000000,                            25P    105
0.00000000000,0.00000000000,0,0,0;                                    25P    106
128,1,1,1,1,0,0,                                                      27P    107
1,0,0,                                                                27P    108
0.00000000000,0.00000000000,1.00000000000,                            27P    109
1.00000000000,0.00000000000,0.00000000000,                            27P    110
1.00000000000,1.00000000000,1.00000000000,                            27P    111
1.00000000000,1.00000000000,1.00000000000,                            27P    112
0.00000000000,10.0000000000,10.0000000000,                            27P    113
10.0000000000,10.0000000000,10.0000000000,                            27P    114
0.00000000000,10.0000000000,0.00000000000,                            27P    115
10.0000000000,10.0000000000,0.00000000000,                            27P    116
0.00000000000,1.00000000000,0.00000000000,                            27P    117
1.00000000000,0,0,0;                                                  27P    118
126,1,1,0,0,1,0,                                                      29P    119
0.00000000000,0.00000000000,1.00000000000,                            29P    120
1.00000000000,1.00000000000,1.00000000000,                            29P    121
10.0000000000,10.0000000000,0.00000000000,                            29P    122
10.0000000000,10.0000000000,10.0000000000,                            29P    123
0.00000000000,1.00000000000,0.00000000000,                            29P    124
0.00000000000,0.00000000000,0,0,0;                                    29P    125
126,1,1,0,0,1,0,                                                      31P    126
0.00000000000,0.00000000000,1.00000000000,                            31P    127
1.00000000000,1.00000000000,1.00000000000,                            31P    128
0.00000000000,10.0000000000,10.0000000000,                            31P    129
0.00000000000,10.0000000000,0.00000000000,                            31P    130
0.00000000000,1.00000000000,0.00000000000,                            31P    131
0.00000000000,0.00000000000,0,0,0;                                    31P    132
128,1,1,1,1,0,0,                                                      33P    133
1,0,0,                                                                33P    134
0.00000000000,0.00000000000,1.00000000000,                            33P    135
1.00000000000,0.00000000000,0.00000000000,                            33P    136
1.00000000000,1.00000000000,1.00000000000,                            33P    137
1.00000000000,1.00000000000,1.00000000000,                            33P    138
0.00000000000,0.00000000000,10.0000000000,                            33P    139
0.00000000000,10.0000000000,10.0000000000,                            33P    140
0.00000000000,0.00000000000,0.00000000000,                            33P    141
0.00000000000,10.0000000000,0.00000000000,                            33P    142
0.00000000000,1.00000000000,0.00000000000,                            33P    143
1.00000000000,0,0,0;                                                  33P    144
128,1,1,1,1,0,0,                                                      35P    145
1,0,0,                                                                35P    146
0.00000000000,0.00000000000,1.00000000000,                            35P    147
1.00000000000,0.00000000000,0.00000000000,                            35P    148
1.00000000000,1.00000000000,1.00000000000,                            35P    149
1.00000000000,1.00000000000,1.00000000000,                            35P    150
10.0000000000,0.00000000000,10.0000000000,                            35P    151
10.0000000000,0.00000000000,0.00000000000,                            35P    152
10.0000000000,10.0000000000,10.0000000000,                            35P    153
10.0000000000,10.0000000000,0.00000000000,                            35P    154
0.00000000000,1.00000000000,0.00000000000,                            35P    155
1.00000000000,0,0,0;                                                  35P    156
502,8,0.00000000000,0.00000000000,                                    37P    157
0.00000000000,0.00000000000,10.0000000000,                            37P    158
0.00000000000,10.0000000000,10.0000000000,                            37P    159
0.00000000000,10.0000000000,0.00000000000,                            37P    160
0.00000000000,0.00000000000,0.00000000000,                            37P    161
10.0000000000,10.0000000000,0.00000000000,                            37P    162
10.0000000000,10.0000000000,10.0000000000,                            37P    163
10.0000000000,0.00000000000,10.0000000000,                            37P    164
10.0000000000,0,0;                                                    37P    165
504,12,3,37,1,37,2,                                                   39P    166
5,37,2,37,3,                                                          39P    167
7,37,3,37,4,                                                          39P    168
9,37,4,37,1,                                                          39P    169
13,37,5,37,6,                                                         39P    170
15,37,6,37,7,                                                         39P    171
17,37,7,37,8,                                                         39P    172
19,37,8,37,5,                                                         39P    173
23,37,5,37,1,                                                         39P    174
25,37,4,37,6,                                                         39P    175
29,37,7,37,3,                                                         39P    176
31,37,2,37,8;                                                         39P    177
508,4,0,39,1,0,0,                                                     41P    178
0,39,2,0,0,                                                           41P    179
0,39,3,0,0,                                                           41P    180
0,39,4,0,0;                                                           41P    181
510,1,1,1,41,0,0;                                                     43P    182
508,4,0,39,5,1,0,                                                     45P    183
0,39,6,1,0,                                                           45P    184
0,39,7,1,0,                                                           45P    185
0,39,8,1,0;                                                           45P    186
510,11,1,1,45,0,0;                                                    47P    187
508,4,0,39,9,1,0,                                                     49P    188
0,39,4,1,0,                                                           49P    189
0,39,10,1,0,                                                          49P    190
0,39,5,0,0;                                                           49P    191
510,21,1,1,49,0,0;                                                    51P    192
508,4,0,39,7,0,0,                                                     53P    193
0,39,11,0,0,                                                          53P    194
0,39,2,1,0,                                                           53P    195
0,39,12,0,0;                                                          53P    196
510,27,1,1,53,0,0;                                                    55P    197
508,4,0,39,8,0,0,                                                     57P    198
0,39,12,1,0,                                                          57P    199
0,39,1,1,0,                                                           57P    200
0,39,9,0,0;                                                           57P    201
510,33,1,1,57,0,0;                                                    59P    202
508,4,0,39,10,0,0,                                                    61P    203
0,39,3,1,0,                                                           61P    204
0,39,11,1,0,                                                          61P    205
0,39,6,0,0;                                                           61P    206
510,35,1,1,61,0,0;                                                    63P    207
514,6,43,1,47,1,51,1,55,1,                                            65P    208
59,1,63,1,0,0,0,0,0,0;                                                65P    209
186,65,1,0,0,0,0;                                                     67P    210
S      1G      3D     68P    210                                        T      1
